# xmcd
#
# Track frame offsets:
#	150
#	10515
#	24396
#	42519
#	56970
#	71911
#	86914
#	103412
#	117152
#	134612
#	149637
#	171054
#
# Disc length: 2551 seconds
#
# Revision: 1
# Processed by: cddbd v1.5.2PL0 Copyright (c) Steve Scherf et al.
# Submitted via: audiograbber 1.83.01
#
DISCID=b609f50c
DTITLE=Toby Keith - The Bus Songs
DYEAR=2017
DGENRE=Country
TTITLE0=Shitty Golfer
TTITLE1=Wacky Tobaccy
TTITLE2=Runnin' Block
TTITLE3=Brand New Bow
TTITLE4=Call a Marine
TTITLE5=Hell No
TTITLE6=The Critic
TTITLE7=The Size I Wear
TTITLE8=Ballad of Balad
TTITLE9=Rum Is the Reason
TTITLE10=Weed with Willie (Live)
TTITLE11=Get out of My Car (Live)
EXTD=
EXTT0=
EXTT1=
EXTT2=
EXTT3=
EXTT4=
EXTT5=
EXTT6=
EXTT7=
EXTT8=
EXTT9=
EXTT10=
EXTT11=
PLAYORDER=
